<svg width="46" height="57" viewBox="0 0 46 57" fill="none" xmlns="http://www.w3.org/2000/svg">
<path d="M20 54C20 55.6569 21.3431 57 23 57C24.6569 57 26 55.6569 26 54L20 54ZM25.1213 0.87868C23.9497 -0.292893 22.0503 -0.292893 20.8787 0.87868L1.7868 19.9706C0.615222 21.1421 0.615222 23.0416 1.7868 24.2132C2.95837 25.3848 4.85786 25.3848 6.02944 24.2132L23 7.24264L39.9706 24.2132C41.1421 25.3848 43.0416 25.3848 44.2132 24.2132C45.3848 23.0416 45.3848 21.1421 44.2132 19.9706L25.1213 0.87868ZM26 54L26 3L20 3L20 54L26 54Z" fill="black"/>
</svg>
