<svg width="810" height="984" viewBox="0 0 810 984" fill="none" xmlns="http://www.w3.org/2000/svg">
<g clip-path="url(#clip0_202_2)">
<path d="M-69.734 91.574C-12.8589 30.538 51.7289 9.62968 212.142 0.314719C350.687 -7.72144 504.362 -72.1108 659.151 -40.172C728.631 -25.8359 779.277 52.3816 725.418 131.243C671.554 210.108 539.025 190.427 385.304 367.089C244.606 528.784 10.6217 531.947 -92.3668 337.214C-136.376 253.998 -127.083 153.114 -69.734 91.574Z" fill="#A483D0"/>
<path d="M744.447 1327.35C676.33 1362.89 601.42 1351.44 515.731 1232.52C430.041 1113.6 366.89 1145.92 294.203 1067.61C153.877 916.557 369.893 801.736 460.527 783.522C613.32 752.828 763.142 610.227 923.283 622.463C1077.33 634.24 1249.02 831.973 1201.94 1002.43C1175.38 1098.6 1116.01 1136.62 988.02 1139.44C839.137 1142.71 856.306 1268.98 744.447 1327.35Z" fill="#27AE60"/>
<path fill-rule="evenodd" clip-rule="evenodd" d="M595 126.009C595 162.701 568.3 193.155 533.268 199.005C568.3 204.854 595 235.31 595 272C595 308.69 568.3 339.146 533.268 344.995C568.3 350.845 595 381.3 595 417.991C595 458.864 561.864 492 520.991 492C484.3 492 453.845 465.3 447.995 430.268C442.146 465.3 411.69 492 375 492C338.31 492 307.854 465.3 302.005 430.268C296.155 465.3 265.701 492 229.009 492C188.135 492 155 458.864 155 417.991C155 381.3 181.7 350.845 216.731 344.995C181.7 339.146 155 308.69 155 272C155 235.31 181.7 204.854 216.731 199.005C181.7 193.155 155 162.701 155 126.009C155 85.135 188.135 52 229.009 52C265.701 52 296.155 78.7003 302.005 113.731C307.854 78.7003 338.31 52 375 52C411.69 52 442.146 78.7003 447.995 113.731C453.845 78.7003 484.3 52 520.991 52C561.864 52 595 85.135 595 126.009ZM302.005 138.288C296.822 169.325 272.325 193.822 241.288 199.005C272.325 204.187 296.822 228.685 302.005 259.723C307.187 228.685 331.685 204.187 362.723 199.005C331.685 193.822 307.187 169.325 302.005 138.288ZM387.277 199.005C418.315 193.822 442.813 169.325 447.995 138.288C453.178 169.325 477.676 193.822 508.713 199.005C477.676 204.187 453.178 228.685 447.995 259.723C442.813 228.685 418.315 204.187 387.277 199.005ZM447.995 405.713C453.178 374.676 477.676 350.178 508.713 344.995C477.676 339.813 453.178 315.315 447.995 284.277C442.813 315.315 418.315 339.813 387.277 344.995C418.315 350.178 442.813 374.676 447.995 405.713ZM302.005 284.277C307.187 315.315 331.685 339.813 362.723 344.995C331.685 350.178 307.187 374.676 302.005 405.713C296.822 374.676 272.325 350.178 241.288 344.995C272.325 339.813 296.822 315.315 302.005 284.277Z" fill="#CBEE4C"/>
<path d="M526.776 338.668C533.051 346.553 541.411 351.836 550.467 354.347C564.096 358.126 579.276 355.616 591.183 346.291C591.215 346.274 591.246 346.254 591.276 346.233C591.304 346.211 591.332 346.189 591.36 346.167L591.402 346.133C591.43 346.11 591.458 346.087 591.485 346.065L633.795 312.436L652.748 363.05C652.765 363.104 652.787 363.148 652.806 363.196C652.815 363.218 652.823 363.24 652.832 363.265C661.811 386.917 688.334 398.933 712.044 390.06C735.776 381.194 747.882 354.685 739.123 330.928L739.105 330.869C739.091 330.82 739.078 330.783 739.055 330.742L720.175 280.122L774.165 277.733C799.527 276.611 819.274 255.043 818.158 229.673C817.042 204.305 795.505 184.561 770.128 185.655L716.157 187.979L730.584 135.859C737.345 111.383 722.957 85.9454 698.497 79.1635C674.037 72.3817 648.604 86.7785 641.792 111.264L627.31 163.321L582.241 133.537C582.222 133.531 582.199 133.52 582.177 133.507C582.148 133.49 582.119 133.468 582.098 133.449C560.927 119.545 532.388 125.405 518.401 146.539C504.414 167.672 510.173 196.216 531.206 210.274C531.225 210.286 531.242 210.299 531.259 210.312L531.331 210.366L531.365 210.389L576.394 240.233L534.144 273.903C534.126 273.923 534.104 273.94 534.081 273.958C534.058 273.975 534.036 273.993 534.018 274.012C514.254 289.86 510.998 318.847 526.776 338.668Z" fill="#F2994A"/>
<path d="M603.11 350.353L603.054 350.402L603.007 350.46C593.595 361.871 579.622 367.466 565.801 366.723C556.62 366.23 547.524 362.941 539.869 356.728L539.239 357.505L539.869 356.728C520.625 341.113 517.636 312.732 533.183 293.432L533.233 293.369L533.242 293.355C533.258 293.335 533.283 293.303 533.31 293.264L567.299 251.331L568.164 250.264L566.882 249.769L516.499 230.313L516.485 230.307L516.43 230.283C516.402 230.269 516.358 230.249 516.304 230.229C493.257 221.223 481.752 195.165 490.666 172.035L489.733 171.675L490.666 172.035C499.575 148.917 525.578 137.313 548.717 146.106C548.773 146.133 548.833 146.157 548.896 146.178C548.925 146.188 548.962 146.199 549.006 146.21L599.344 165.571L600.627 166.064L600.702 164.692L603.647 110.739C605.003 85.9112 626.274 66.8047 651.068 68.1368C675.862 69.469 694.963 90.7449 693.654 115.552L690.775 169.554L690.702 170.927L692.031 170.574L744.238 156.696L744.015 155.855L744.238 156.696C768.253 150.311 792.985 164.643 799.389 188.644C805.794 212.646 791.465 237.409 767.472 243.817L715.26 257.764L713.932 258.119L714.678 259.273L744.004 304.646L744.047 304.713L744.059 304.727L744.077 304.759L744.092 304.785L744.108 304.81C757.476 325.665 751.486 353.541 730.681 367.004L730.68 367.004C709.9 380.467 682.037 374.573 668.479 353.876C668.468 353.859 668.456 353.839 668.441 353.817C668.433 353.805 668.425 353.793 668.416 353.78C668.413 353.776 668.41 353.772 668.407 353.768C668.399 353.755 668.391 353.745 668.385 353.737L668.367 353.711L668.359 353.697L668.346 353.677L638.95 308.324L638.202 307.17L637.334 308.237L603.248 350.179L603.243 350.186C603.196 350.245 603.208 350.23 603.181 350.264L603.175 350.271L603.169 350.279L603.142 350.313C603.142 350.314 603.141 350.315 603.14 350.316C603.132 350.326 603.123 350.337 603.11 350.353Z" stroke="white" stroke-width="2"/>
<path d="M135 344C119.353 344 104.345 337.794 93.2807 326.746C82.216 315.699 76 300.716 76 285.094C76 260.898 87.2097 242.762 100.867 220.666C111.491 203.48 123.594 183.897 133.058 157.203C133.611 155.643 134.991 151 134.991 151C134.991 151 134.994 151.01 135 151.029C135.006 151.01 135.009 151 135.009 151C135.009 151 136.389 155.643 136.942 157.203C146.406 183.897 158.509 203.48 169.133 220.666C182.79 242.762 194 260.898 194 285.094C194 300.716 187.784 315.699 176.719 326.746C165.733 337.716 150.538 344 135 344Z" fill="#56CCF2"/>
<path d="M244.424 602.177C244.927 597.941 251.073 597.941 251.576 602.177L255.792 637.709C261.236 683.59 297.41 719.764 343.291 725.208L378.823 729.424C383.059 729.927 383.059 736.073 378.823 736.576L343.291 740.792C297.41 746.236 261.236 782.41 255.792 828.291L251.576 863.823C251.073 868.059 244.927 868.059 244.424 863.823L240.208 828.291C234.764 782.41 198.59 746.236 152.709 740.792L117.177 736.576C112.941 736.073 112.941 729.927 117.177 729.424L152.709 725.208C198.59 719.764 234.764 683.59 240.208 637.709L244.424 602.177Z" fill="#F0C3D2"/>
<path d="M262.909 226C183.982 226 120 249.825 120 279.215C120 308.605 183.982 332.431 262.909 332.431C307.142 332.431 343 322.345 343 309.904C343 297.463 307.142 287.377 262.909 287.377C183.982 287.377 120 311.203 120 340.593C120 369.983 183.982 393.809 262.909 393.809C307.142 393.809 343 383.723 343 371.281C343 358.84 307.142 348.754 262.909 348.754C183.982 348.754 120 372.726 120 402.296C120 431.866 183.982 455.839 262.909 455.839C307.142 455.839 343 445.753 343 433.311C343 420.87 307.142 410.785 262.909 410.785C183.982 410.785 120 434.61 120 464C120 493.39 183.982 517.215 262.909 517.215C307.142 517.215 343 507.13 343 494.689C343 482.247 307.142 472.161 262.909 472.161C183.982 472.161 120 495.988 120 525.378C120 554.768 183.982 578.592 262.909 578.592C307.142 578.592 343 568.506 343 556.067C343 543.625 307.142 533.539 262.909 533.539C183.982 533.539 120 557.365 120 586.754C120 616.144 183.982 639.97 262.909 639.97C307.142 639.97 343 629.884 343 617.443C343 605.003 307.142 594.917 262.909 594.917C183.982 594.917 120 618.887 120 648.457C120 678.028 183.982 702 262.909 702" stroke="white" stroke-width="3" stroke-linecap="round"/>
<path d="M-237.325 1361.92C-215.554 1369.79 -192.839 1370.06 -172.097 1364.07C-140.882 1355.06 -114.201 1331.88 -102.127 1299.3C-102.087 1299.23 -102.05 1299.15 -102.018 1299.08C-101.988 1299 -101.958 1298.92 -101.932 1298.85L-101.891 1298.73C-101.863 1298.65 -101.837 1298.57 -101.81 1298.49L-59.5047 1181.78L38.5038 1257.98C38.6027 1258.06 38.6978 1258.12 38.7925 1258.19C38.8374 1258.23 38.8794 1258.26 38.9261 1258.3C84.9658 1293.76 151.325 1285.34 187.035 1239.44C222.796 1193.53 214.574 1127.1 168.839 1091.17L168.735 1091.07C168.647 1091 168.579 1090.94 168.483 1090.89L70.6111 1014.59L173.373 944.923C221.644 912.2 234.321 846.237 201.598 797.951C168.878 749.668 102.973 736.968 54.6358 769.655L-48.1664 839.167L-82.676 719.841C-98.9095 663.821 -157.681 631.378 -213.703 647.554C-269.726 663.73 -302.157 722.508 -286.014 778.608L-251.686 897.877L-375.721 893.862C-375.766 893.875 -375.823 893.881 -375.883 893.881C-375.96 893.883 -376.041 893.875 -376.107 893.863C-434.267 892.147 -483.054 937.964 -484.981 996.144C-486.908 1054.32 -441.282 1103.23 -383.208 1105.41C-383.155 1105.41 -383.106 1105.42 -383.058 1105.42L-382.851 1105.44L-382.757 1105.45L-258.73 1109.63L-300.867 1226.35C-300.878 1226.41 -300.901 1226.47 -300.924 1226.53C-300.948 1226.6 -300.971 1226.66 -300.982 1226.71C-320.575 1281.51 -292.054 1342.13 -237.325 1361.92Z" fill="#2F80ED"/>
<path d="M568.741 673.96L512.073 780L519.756 670.611L410.261 723.074L488.061 639.358L368 644.939L463.088 603.639L368 519.924L472.693 540.015V415L512.073 540.015L568.741 429.511L548.572 552.293L631.174 456.3L568.741 573.501L665.751 528.853L568.741 617.033H684L568.741 673.96Z" fill="#EB5757"/>
<path d="M664.351 650.221L665.173 650.791C694.732 608.146 753.265 597.538 795.91 627.098C838.556 656.658 849.163 715.191 819.603 757.836C790.043 800.481 731.511 811.089 688.865 781.529L688.296 782.351L687.726 783.173C730.372 812.733 740.979 871.265 711.419 913.91C681.859 956.556 623.327 967.163 580.681 937.603C538.036 908.043 527.428 849.511 556.988 806.865L556.166 806.296L555.345 805.726C525.785 848.371 467.252 858.979 424.607 829.419C381.962 799.859 371.354 741.327 400.914 698.681C430.474 656.036 489.007 645.429 531.652 674.988L532.221 674.166L532.791 673.345C490.146 643.785 479.538 585.252 509.098 542.607C538.658 499.962 597.191 489.354 639.836 518.914C682.481 548.474 693.088 607.007 663.529 649.652L664.351 650.221Z" stroke="white" stroke-width="2"/>
</g>
<defs>
<clipPath id="clip0_202_2">
<rect width="810" height="984" fill="white"/>
</clipPath>
</defs>
</svg>
