<svg width="323" height="677" viewBox="0 0 323 677" fill="none" xmlns="http://www.w3.org/2000/svg">
<mask id="mask0_84_4" style="mask-type:alpha" maskUnits="userSpaceOnUse" x="0" y="0" width="323" height="677">
<rect width="323" height="677" fill="black"/>
</mask>
<g mask="url(#mask0_84_4)">
<path d="M-58.3655 176.176C-23.7032 136.588 15.6596 123.027 113.423 116.985C197.859 111.773 291.516 70.0104 385.851 90.7258C428.196 100.024 459.062 150.756 426.237 201.906C393.41 253.057 312.641 240.292 218.956 354.874C133.208 459.75 -9.39299 461.801 -72.159 335.498C-98.9805 281.524 -93.3166 216.091 -58.3655 176.176Z" fill="#A483D0"/>
<path fill-rule="evenodd" clip-rule="evenodd" d="M323 408.329C323 435.264 303.4 457.62 277.683 461.915C303.4 466.209 323 488.566 323 515.5C323 542.434 303.4 564.791 277.683 569.085C303.4 573.38 323 595.736 323 622.671C323 652.675 298.675 677 268.671 677C241.736 677 219.38 657.4 215.085 631.683C210.791 657.4 188.434 677 161.5 677C134.566 677 112.209 657.4 107.915 631.683C103.62 657.4 81.2643 677 54.3295 677C24.3241 677 0 652.675 0 622.671C0 595.736 19.6005 573.38 45.316 569.085C19.6005 564.791 0 542.434 0 515.5C0 488.566 19.6005 466.209 45.316 461.915C19.6005 457.62 0 435.264 0 408.329C0 378.324 24.3241 354 54.3295 354C81.2643 354 103.62 373.6 107.915 399.316C112.209 373.6 134.566 354 161.5 354C188.434 354 210.791 373.6 215.085 399.316C219.38 373.6 241.736 354 268.671 354C298.675 354 323 378.324 323 408.329ZM107.915 417.343C104.11 440.127 86.127 458.11 63.343 461.915C86.127 465.719 104.11 483.703 107.915 506.487C111.719 483.703 129.703 465.719 152.487 461.915C129.703 458.11 111.719 440.127 107.915 417.343ZM170.513 461.915C193.297 458.11 211.281 440.127 215.085 417.343C218.89 440.127 236.874 458.11 259.658 461.915C236.874 465.719 218.89 483.703 215.085 506.487C211.281 483.703 193.297 465.719 170.513 461.915ZM215.085 613.658C218.89 590.874 236.874 572.89 259.658 569.085C236.874 565.281 218.89 547.297 215.085 524.513C211.281 547.297 193.297 565.281 170.513 569.085C193.297 572.89 211.281 590.874 215.085 613.658ZM107.915 524.513C111.719 547.297 129.703 565.281 152.487 569.085C129.703 572.89 111.719 590.874 107.915 613.658C104.11 590.874 86.127 572.89 63.343 569.085C86.127 565.281 104.11 547.297 107.915 524.513Z" fill="#CBEE4C"/>
<path d="M200.609 181.719C205.242 187.54 211.413 191.441 218.099 193.295C228.161 196.085 239.369 194.232 248.16 187.347C248.183 187.334 248.206 187.319 248.228 187.304C248.249 187.288 248.27 187.272 248.29 187.256L248.321 187.23C248.342 187.213 248.363 187.196 248.383 187.18L279.62 162.352L293.612 199.72C293.625 199.76 293.641 199.792 293.655 199.827C293.662 199.844 293.668 199.86 293.674 199.878C300.304 217.34 319.885 226.212 337.39 219.661C354.911 213.115 363.849 193.544 357.382 176.004L357.369 175.961C357.359 175.925 357.35 175.898 357.332 175.867L343.394 138.495L383.254 136.731C401.978 135.902 416.558 119.979 415.733 101.249C414.909 82.5198 399.009 67.9428 380.273 68.7504L340.427 70.4662L351.078 31.9865C356.07 13.9163 345.447 -4.86402 327.389 -9.87103C309.33 -14.878 290.553 -4.249 285.524 13.8283L274.832 52.2616L241.558 30.2722C241.544 30.2681 241.527 30.2601 241.51 30.2502C241.489 30.2376 241.468 30.2218 241.452 30.2075C225.822 19.9423 204.752 24.2685 194.425 39.8718C184.099 55.474 188.351 76.548 203.879 86.9263C203.893 86.9355 203.906 86.9452 203.918 86.9547L203.972 86.9946L203.997 87.0118L237.241 109.045L206.048 133.904C206.035 133.918 206.019 133.931 206.002 133.944C205.985 133.957 205.968 133.97 205.956 133.984C191.364 145.685 188.96 167.085 200.609 181.719Z" fill="#F2994A"/>
<path d="M256.785 190.153C256.784 190.154 256.783 190.155 256.782 190.156C256.781 190.158 256.779 190.16 256.777 190.163L256.735 190.2L256.687 190.258C249.794 198.616 239.56 202.714 229.435 202.17C222.71 201.809 216.047 199.4 210.44 194.849L209.81 195.626L210.44 194.849C196.345 183.412 194.155 162.623 205.543 148.486L205.593 148.423L205.599 148.412C205.611 148.397 205.626 148.378 205.641 148.356L230.729 117.404L231.595 116.336L230.313 115.841L193.118 101.478L193.114 101.477L193.081 101.462C193.056 101.45 193.018 101.433 192.971 101.415C176.091 94.8176 167.664 75.7312 174.193 58.7889L173.26 58.4293L174.193 58.7889C180.718 41.8592 199.759 33.3593 216.705 39.7926C216.754 39.8156 216.806 39.8367 216.86 39.8545C216.882 39.8619 216.91 39.8705 216.942 39.8788L254.091 54.1671L255.374 54.6605L255.449 53.2883L257.623 13.455C258.616 -4.73111 274.197 -18.7264 292.358 -17.7506C310.519 -16.7748 324.51 -1.19037 323.552 16.9804L321.427 56.8498L321.353 58.2227L322.682 57.8695L361.226 47.6231L360.969 46.6566L361.226 47.6231C378.817 42.9462 396.933 53.4446 401.624 71.0248L402.59 70.767L401.624 71.0248C406.315 88.6058 395.819 106.745 378.245 111.439L339.697 121.735L338.369 122.09L339.115 123.244L360.766 156.743L360.809 156.809L360.813 156.813L360.826 156.838L360.843 156.863C370.635 172.139 366.247 192.558 351.008 202.419L351.007 202.419C335.787 212.28 315.379 207.964 305.447 192.806C305.434 192.784 305.416 192.757 305.395 192.727C305.393 192.723 305.391 192.72 305.388 192.717C305.381 192.706 305.375 192.697 305.37 192.691L305.366 192.685L305.363 192.681L305.362 192.68L305.361 192.677L305.348 192.657L283.645 159.174L282.897 158.02L282.03 159.087L256.864 190.052L256.859 190.059C256.817 190.111 256.836 190.088 256.815 190.115L256.809 190.122L256.802 190.13L256.785 190.153ZM256.786 190.154C256.788 190.153 256.789 190.152 256.791 190.15L256.786 190.154Z" stroke="white" stroke-width="2"/>
<path d="M88 152C72.3529 152 57.3451 145.794 46.2807 134.746C35.216 123.699 29 108.716 29 93.0938C29 68.8978 40.2097 50.7622 53.8673 28.6657C64.4905 11.4796 76.5944 -8.10303 86.0578 -34.7969C86.6107 -36.357 87.9911 -41 87.9911 -41C87.9911 -41 87.9943 -40.9899 88 -40.9706C88.0057 -40.9899 88.0089 -41 88.0089 -41C88.0089 -41 89.3893 -36.357 89.9422 -34.7969C99.4056 -8.10303 111.509 11.4796 122.133 28.6657C135.79 50.7622 147 68.8978 147 93.0938C147 108.716 140.784 123.699 129.719 134.746C118.733 145.716 103.538 152 88 152Z" fill="#56CCF2"/>
</g>
</svg>
