<svg width="1200" height="419" viewBox="0 0 1200 419" fill="none" xmlns="http://www.w3.org/2000/svg">
<path d="M0 0H1200C1200 231.407 1012.41 419 781 419H0V0Z" fill="black"/>
<mask id="mask0_62_68" style="mask-type:alpha" maskUnits="userSpaceOnUse" x="0" y="0" width="1200" height="419">
<path d="M0 0H1200C1200 231.407 1012.41 419 781 419H0V0Z" fill="black"/>
</mask>
<g mask="url(#mask0_62_68)">
<path fill-rule="evenodd" clip-rule="evenodd" d="M444.912 100.021C454.363 101.143 454.363 114.857 444.912 115.979L365.628 125.387C354.509 126.706 343.646 128.834 333.099 131.711C342.542 137.219 352.484 142.086 362.883 146.238L437.03 175.845C445.869 179.375 442.319 192.622 432.9 191.26L353.883 179.826C342.802 178.223 331.758 177.467 320.825 177.516C328.521 185.281 336.864 192.555 345.833 199.256L409.792 247.045C417.416 252.743 410.559 264.62 401.812 260.866L328.447 229.371C318.159 224.954 307.687 221.366 297.115 218.583C302.539 228.076 308.716 237.262 315.645 246.056L365.055 308.771C370.944 316.247 361.247 325.944 353.771 320.055L291.056 270.645C282.262 263.716 273.076 257.539 263.584 252.115C266.366 262.688 269.955 273.159 274.371 283.447L305.866 356.813C309.62 365.559 297.743 372.416 292.046 364.792L244.257 300.834C237.555 291.865 230.28 283.521 222.515 275.825C222.467 286.757 223.223 297.801 224.826 308.882L236.259 387.899C237.622 397.32 224.375 400.869 220.845 392.03L191.238 317.882C187.086 307.484 182.219 297.542 176.71 288.099C173.834 298.646 171.706 309.509 170.387 320.627L160.979 399.911C159.857 409.363 146.143 409.363 145.021 399.911L135.613 320.627C134.294 309.509 132.166 298.646 129.29 288.099C123.781 297.542 118.914 307.484 114.762 317.882L85.1553 392.03C81.6248 400.869 68.3783 397.32 69.7405 387.899L81.1739 308.882C82.7773 297.801 83.5333 286.758 83.4845 275.825C75.7196 283.521 68.4453 291.865 61.7436 300.834L13.9546 364.792C8.25659 372.417 -3.61995 365.56 0.134048 356.813L31.6291 283.447C36.0457 273.159 39.6342 262.687 42.4166 252.115C32.9246 257.539 23.7389 263.715 14.9443 270.644L-47.77 320.054C-55.2472 325.944 -64.9443 316.247 -59.0544 308.77L-9.64412 246.056C-2.71512 237.261 3.46138 228.075 8.88536 218.583C-1.68712 221.365 -12.1586 224.954 -22.4468 229.37L-95.8125 260.866C-104.559 264.619 -111.416 252.743 -103.792 247.045L-39.8335 199.256C-30.8646 192.554 -22.5214 185.28 -14.8257 177.516C-25.7579 177.467 -36.8012 178.223 -47.8819 179.826L-126.899 191.26C-136.32 192.622 -139.869 179.375 -131.03 175.845L-56.8819 146.238C-46.4839 142.086 -36.5419 137.219 -27.0984 131.711C-37.6457 128.834 -48.5086 126.706 -59.627 125.387L-138.911 115.979C-148.363 114.857 -148.363 101.143 -138.911 100.021L-59.627 90.6133C-48.5088 89.2941 -37.6461 87.1662 -27.0989 84.2896C-36.5421 78.7812 -46.4839 73.9143 -56.8818 69.7625L-131.029 40.1555C-139.869 36.625 -136.319 23.3784 -126.899 24.7407L-47.8818 36.1741C-36.8011 37.7774 -25.7579 38.5334 -14.8257 38.4847C-22.5217 30.7197 -30.8653 23.4453 -39.8346 16.7435L-103.793 -31.0455C-111.416 -36.7429 -104.56 -48.6195 -95.8136 -44.866L-22.4479 -13.371C-12.1593 -8.95425 -1.68758 -5.36562 8.88522 -2.58315C3.46127 -12.0752 -2.71518 -21.2611 -9.64412 -30.0557L-59.0544 -92.77C-64.9443 -100.247 -55.2472 -109.944 -47.77 -104.054L14.9443 -54.6441C23.739 -47.7151 32.9249 -41.5387 42.417 -36.1147C39.6346 -46.6873 36.0461 -57.1588 31.6294 -67.4472L0.134338 -140.813C-3.61964 -149.56 8.2569 -156.417 13.9549 -148.792L61.7439 -84.8339C68.4454 -75.865 75.7195 -67.5216 83.4842 -59.8259C83.5329 -70.7582 82.7769 -81.8016 81.1735 -92.8824L69.7401 -171.9C68.3782 -181.319 81.6247 -184.868 85.1549 -176.03L114.762 -101.882C118.914 -91.4843 123.781 -81.5423 129.289 -72.0988C132.166 -82.6463 134.294 -93.5093 135.613 -104.628L145.021 -183.912C146.143 -193.363 159.857 -193.363 160.979 -183.912L170.387 -104.628C171.706 -93.5093 173.834 -82.6463 176.711 -72.0989C182.219 -81.5423 187.086 -91.4844 191.238 -101.882L220.845 -176.03C224.375 -184.869 237.622 -181.319 236.26 -171.9L224.826 -92.8825C223.223 -81.8016 222.467 -70.7581 222.516 -59.8257C230.281 -67.5216 237.555 -75.8651 244.256 -84.8342L292.045 -148.793C297.743 -156.416 309.619 -149.559 305.866 -140.813L274.371 -67.4476C269.954 -57.1591 266.366 -46.6876 263.583 -36.115C273.076 -41.539 282.262 -47.7156 291.056 -54.6447L353.771 -104.055C361.247 -109.944 370.944 -100.247 365.055 -92.7706L315.645 -30.0563C308.716 -21.2617 302.539 -12.0758 297.115 -2.58371C307.688 -5.36617 318.159 -8.95473 328.448 -13.3714L401.814 -44.8665C410.559 -48.6199 417.416 -36.7433 409.793 -31.0459L345.835 16.7431C336.865 23.445 328.521 30.7195 320.825 38.4846C331.758 38.5334 342.801 37.7773 353.883 36.174L432.9 24.7405C442.319 23.3786 445.869 36.6252 437.03 40.1553L362.883 69.7624C352.485 73.9142 342.543 78.7812 333.099 84.2896C343.647 87.1662 354.509 89.2941 365.628 90.6133L444.912 100.021Z" fill="#F2994A"/>
<path d="M1223.6 -11.7545C1272.75 92.4375 1234.41 217.28 1137.6 268.334C1008.55 336.403 879.92 319.552 751.989 411.1C668.31 470.99 524.193 538.822 452.719 422.559C408.31 350.313 428.543 257.76 517.495 126.225C579.299 34.8133 593.974 -5.46024 603.908 -110.915C625.417 -339.541 723.983 -410.162 895.351 -270.094C994.832 -188.789 1164.52 -137.054 1223.6 -11.7545Z" fill="#F2C94C"/>
<path d="M745.014 61.0576C745.415 69.1188 742.53 74.7285 732.425 85.5406C723.696 94.8781 717.842 109.298 705.266 116.734C699.621 120.071 690.83 117.542 688.996 108.366C687.163 99.1891 697.401 92.2612 695.509 69.6172C693.778 48.8915 709.238 33.884 729.578 41.6404C738.27 44.9551 744.61 52.9295 745.014 61.0576Z" fill="#A483D0"/>
<path d="M764.014 142.058C764.415 150.119 761.53 155.729 751.425 166.541C742.696 175.878 736.842 190.298 724.266 197.734C718.621 201.071 709.83 198.542 707.996 189.366C706.163 180.189 716.401 173.261 714.509 150.617C712.778 129.891 728.238 114.884 748.578 122.64C757.27 125.955 763.61 133.93 764.014 142.058Z" fill="#A483D0"/>
<path d="M859.014 32.0576C859.415 40.1188 856.53 45.7285 846.425 56.5406C837.696 65.8781 831.842 80.2976 819.266 87.7336C813.621 91.0714 804.83 88.5419 802.996 79.3657C801.163 70.1891 811.401 63.2612 809.509 40.6172C807.778 19.8915 823.238 4.88399 843.578 12.6404C852.27 15.9551 858.61 23.9295 859.014 32.0576Z" fill="#A483D0"/>
<path d="M803.014 -44.9424C803.415 -36.8812 800.53 -31.2715 790.425 -20.4594C781.696 -11.1219 775.842 3.29765 763.266 10.7336C757.621 14.0714 748.83 11.5419 746.996 2.36572C745.163 -6.81088 755.401 -13.7388 753.509 -36.3828C751.778 -57.1085 767.238 -72.116 787.578 -64.3596C796.27 -61.0449 802.61 -53.0705 803.014 -44.9424Z" fill="#A483D0"/>
<path d="M722.014 -44.9424C722.415 -36.8812 719.53 -31.2715 709.425 -20.4594C700.696 -11.1219 694.842 3.29765 682.266 10.7336C676.621 14.0714 667.83 11.5419 665.996 2.36572C664.163 -6.81088 674.401 -13.7388 672.509 -36.3828C670.778 -57.1085 686.238 -72.116 706.578 -64.3596C715.27 -61.0449 721.61 -53.0705 722.014 -44.9424Z" fill="#A483D0"/>
<path d="M627.014 61.0576C627.415 69.1188 624.53 74.7285 614.425 85.5406C605.696 94.8781 599.842 109.298 587.266 116.734C581.621 120.071 572.83 117.542 570.996 108.366C569.163 99.1891 579.401 92.2612 577.509 69.6172C575.778 48.8915 591.238 33.884 611.578 41.6404C620.27 44.9551 626.61 52.9295 627.014 61.0576Z" fill="#A483D0"/>
<path d="M675.014 181.058C675.415 189.119 672.53 194.729 662.425 205.541C653.696 214.878 647.842 229.298 635.266 236.734C629.621 240.071 620.83 237.542 618.996 228.366C617.163 219.189 627.401 212.261 625.509 189.617C623.778 168.891 639.238 153.884 659.578 161.64C668.27 164.955 674.61 172.93 675.014 181.058Z" fill="#A483D0"/>
<path d="M727.014 301.058C727.415 309.119 724.53 314.729 714.425 325.541C705.696 334.878 699.842 349.298 687.266 356.734C681.621 360.071 672.83 357.542 670.996 348.366C669.163 339.189 679.401 332.261 677.509 309.617C675.778 288.891 691.238 273.884 711.578 281.64C720.27 284.955 726.61 292.93 727.014 301.058Z" fill="#A483D0"/>
<path d="M632.014 303.058C632.415 311.119 629.53 316.729 619.425 327.541C610.696 336.878 604.842 351.298 592.266 358.734C586.621 362.071 577.83 359.542 575.996 350.366C574.163 341.189 584.401 334.261 582.509 311.617C580.778 290.891 596.238 275.884 616.578 283.64C625.27 286.955 631.61 294.93 632.014 303.058Z" fill="#A483D0"/>
<path d="M580.014 173.058C580.415 181.119 577.53 186.729 567.425 197.541C558.696 206.878 552.842 221.298 540.266 228.734C534.621 232.071 525.83 229.542 523.996 220.366C522.163 211.189 532.401 204.261 530.509 181.617C528.778 160.891 544.238 145.884 564.578 153.64C573.27 156.955 579.61 164.93 580.014 173.058Z" fill="#A483D0"/>
<path d="M803.014 220.058C803.415 228.119 800.53 233.729 790.425 244.541C781.696 253.878 775.842 268.298 763.266 275.734C757.621 279.071 748.83 276.542 746.996 267.366C745.163 258.189 755.401 251.261 753.509 228.617C751.778 207.891 767.238 192.884 787.578 200.64C796.27 203.955 802.61 211.93 803.014 220.058Z" fill="#A483D0"/>
<path d="M882.014 126.058C882.415 134.119 879.53 139.729 869.425 150.541C860.696 159.878 854.842 174.298 842.266 181.734C836.621 185.071 827.83 182.542 825.996 173.366C824.163 164.189 834.401 157.261 832.509 134.617C830.778 113.891 846.238 98.884 866.578 106.64C875.27 109.955 881.61 117.93 882.014 126.058Z" fill="#A483D0"/>
<path d="M638.014 -52.9424C638.415 -44.8812 635.53 -39.2715 625.425 -28.4594C616.696 -19.1219 610.842 -4.70235 598.266 2.7336C592.621 6.07137 583.83 3.54188 581.996 -5.63428C580.163 -14.8109 590.401 -21.7388 588.509 -44.3828C586.778 -65.1085 602.238 -80.116 622.578 -72.3596C631.27 -69.0449 637.61 -61.0705 638.014 -52.9424Z" fill="#A483D0"/>
<path d="M533.014 53.0576C533.415 61.1188 530.53 66.7285 520.425 77.5406C511.696 86.8781 505.842 101.298 493.266 108.734C487.621 112.071 478.83 109.542 476.996 100.366C475.163 91.1891 485.401 84.2612 483.509 61.6172C481.778 40.8915 497.238 25.884 517.578 33.6404C526.27 36.9551 532.61 44.9295 533.014 53.0576Z" fill="#A483D0"/>
<path d="M544.014 287.058C544.415 295.119 541.53 300.729 531.425 311.541C522.696 320.878 516.842 335.298 504.266 342.734C498.621 346.071 489.83 343.542 487.996 334.366C486.163 325.189 496.401 318.261 494.509 295.617C492.778 274.891 508.238 259.884 528.578 267.64C537.27 270.955 543.61 278.93 544.014 287.058Z" fill="#A483D0"/>
<path d="M451.014 275.058C451.415 283.119 448.53 288.729 438.425 299.541C429.696 308.878 423.842 323.298 411.266 330.734C405.621 334.071 396.83 331.542 394.996 322.366C393.163 313.189 403.401 306.261 401.509 283.617C399.778 262.891 415.238 247.884 435.578 255.64C444.27 258.955 450.61 266.93 451.014 275.058Z" fill="#A483D0"/>
<path d="M488.014 155.058C488.415 163.119 485.53 168.729 475.425 179.541C466.696 188.878 460.842 203.298 448.266 210.734C442.621 214.071 433.83 211.542 431.996 202.366C430.163 193.189 440.401 186.261 438.509 163.617C436.778 142.891 452.238 127.884 472.578 135.64C481.27 138.955 487.61 146.93 488.014 155.058Z" fill="#A483D0"/>
<path d="M560.014 395.058C560.415 403.119 557.53 408.729 547.425 419.541C538.696 428.878 532.842 443.298 520.266 450.734C514.621 454.071 505.83 451.542 503.996 442.366C502.163 433.189 512.401 426.261 510.509 403.617C508.778 382.891 524.238 367.884 544.578 375.64C553.27 378.955 559.61 386.93 560.014 395.058Z" fill="#A483D0"/>
<path d="M462.014 397.058C462.415 405.119 459.53 410.729 449.425 421.541C440.696 430.878 434.842 445.298 422.266 452.734C416.621 456.071 407.83 453.542 405.996 444.366C404.163 435.189 414.401 428.261 412.509 405.617C410.778 384.891 426.238 369.884 446.578 377.64C455.27 380.955 461.61 388.93 462.014 397.058Z" fill="#A483D0"/>
<path fill-rule="evenodd" clip-rule="evenodd" d="M190.513 266.844C363.062 149.356 430.963 409.724 224.524 393.634C410.924 484.511 220.777 674.029 131.676 486.43C147.113 695.22 -110.939 624.371 6.40105 452.862C-166.148 570.353 -234.478 311.576 -27.611 326.074C-216.024 236.364 -25.8751 46.8455 65.2388 233.277C47.7879 25.6528 307.852 95.3366 190.513 266.844Z" fill="#EB5757"/>
<path d="M202.314 242.689L203.909 243.838C241.587 208.009 276.493 196.587 304.392 199.649C332.29 202.71 353.374 220.27 363.441 242.82C373.507 265.372 372.542 292.885 356.339 315.849C340.138 338.812 308.588 357.375 257.204 361.736L257.002 363.69C306.475 378.517 333.618 403.136 344.835 428.909C356.052 454.683 351.422 481.779 337.012 501.788C322.602 521.796 298.431 534.691 270.566 532.067C242.701 529.442 210.95 511.274 181.494 468.754L179.699 469.558C191.906 520.258 184.446 556.334 167.987 579.067C151.531 601.798 125.971 611.343 101.603 608.812C77.2345 606.281 54.078 591.675 42.435 566.088C30.792 540.501 30.5919 503.764 52.5231 456.884L50.9282 455.735C13.2489 491.565 -21.6695 503.091 -49.5832 500.155C-77.4951 497.22 -98.592 479.813 -108.667 457.367C-118.742 434.921 -117.784 407.458 -101.572 384.416C-85.3609 361.375 -53.7875 342.607 -2.36095 337.838L-2.17509 335.882C-52.1004 321.421 -79.5776 297.075 -91.0146 271.487C-102.451 245.901 -97.9326 218.901 -83.5235 198.894C-69.114 178.887 -44.8289 165.895 -16.7335 168.338C11.3603 170.781 43.4468 188.679 73.3497 230.828L75.1351 230.006C62.4819 179.676 69.7193 143.788 86.0912 121.128C102.463 98.4683 128.078 88.8749 152.563 91.3154C177.048 93.756 200.371 108.228 212.151 133.699C223.931 159.168 224.244 195.81 202.314 242.689Z" stroke="white" stroke-width="2"/>
<path d="M942.802 427.465L895.997 503L902.343 425.079L811.906 462.45L876.164 402.817L777 406.792L855.538 377.373L777 317.74L863.471 332.052V243L895.997 332.052L942.802 253.336L926.143 340.798L994.368 272.419L942.802 355.905L1022.93 324.101L942.802 386.914H1038L942.802 427.465Z" fill="#CBEE4C"/>
<path d="M459.979 149.419C455.052 121.231 432.83 99.0043 404.674 94.1242C432.912 89.2296 455.182 66.8861 460.021 38.5819C464.948 66.7687 487.17 88.9957 515.326 93.8758C487.087 98.7703 464.817 121.114 459.979 149.419Z" stroke="white" stroke-width="2"/>
<path d="M901.856 443.973C751.218 333.231 718.569 121.232 828.908 -29.6991C917.115 -150.358 1086.39 -176.429 1206.82 -87.9001C1303.18 -17.0607 1324.08 118.649 1253.5 215.198C1196.99 292.502 1088.74 309.171 1011.59 252.452C949.869 207.078 936.501 120.289 981.713 58.4472C1017.83 9.03842 1087.19 -1.64293 1136.5 34.609C1176 63.6423 1184.56 119.22 1155.63 158.79C1132.47 190.469 1088.16 197.294 1056.55 174.05C1031.3 155.488 1025.81 119.873 1044.31 94.5741" stroke="white" stroke-width="3" stroke-linecap="round"/>
</g>
</svg>
