<svg width="121" height="322" viewBox="0 0 121 322" fill="none" xmlns="http://www.w3.org/2000/svg">
<path fill-rule="evenodd" clip-rule="evenodd" d="M77.261 0.5C56.1583 0.5 37.0312 3.68413 23.1618 8.84854C16.2289 11.43 10.5837 14.516 6.66255 17.9679C2.74222 21.4192 0.5 25.2799 0.5 29.3964C0.5 33.5129 2.74222 37.3736 6.66255 40.8249C8.64937 42.574 11.0789 44.2291 13.8942 45.7723C11.0789 47.3154 8.64937 48.9705 6.66255 50.7197C2.74222 54.1709 0.5 58.0316 0.5 62.1481C0.5 66.2646 2.74222 70.1253 6.66255 73.5767C8.6657 75.3402 11.1188 77.0082 13.9637 78.5622C11.1183 80.1259 8.6648 81.8043 6.66141 83.5788C2.74095 87.0514 0.5 90.9347 0.5 95.074C0.5 95.1279 0.50038 95.1818 0.50114 95.2357C0.50038 95.2892 0.5 95.3428 0.5 95.3964C0.5 99.5129 2.74222 103.374 6.66255 106.825C8.61765 108.546 11.0014 110.176 13.7596 111.698C11.0014 113.22 8.61765 114.85 6.66255 116.572C2.74222 120.023 0.5 123.883 0.5 128C0.5 128.025 0.500081 128.049 0.500242 128.074C0.500081 128.099 0.5 128.123 0.5 128.148C0.5 132.265 2.74222 136.125 6.66255 139.577C8.61761 141.298 11.0013 142.928 13.7595 144.45C11.0013 145.972 8.61761 147.602 6.66254 149.323C2.74222 152.775 0.5 156.635 0.5 160.752C0.5 160.806 0.50038 160.859 0.501138 160.913C0.50038 160.966 0.5 161.02 0.5 161.074C0.5 165.213 2.74095 169.097 6.66141 172.569C8.55892 174.25 10.8602 175.845 13.5158 177.337C10.8607 178.82 8.55981 180.405 6.66255 182.075C2.74223 185.526 0.5 189.387 0.5 193.503C0.5 193.586 0.50091 193.669 0.502727 193.752C0.50091 193.834 0.5 193.917 0.5 194C0.5 198.117 2.74222 201.977 6.66255 205.428C8.55979 207.099 10.8607 208.683 13.5157 210.166C10.8602 211.659 8.55889 213.253 6.66141 214.934C2.74095 218.406 0.5 222.29 0.5 226.429C0.5 226.483 0.500382 226.537 0.501145 226.591C0.500382 226.645 0.5 226.698 0.5 226.752C0.5 230.868 2.74222 234.729 6.66255 238.18C8.64936 239.93 11.0788 241.585 13.8942 243.128C11.0788 244.671 8.64936 246.326 6.66255 248.075C2.74223 251.526 0.5 255.387 0.5 259.503C0.5 263.62 2.74222 267.48 6.66255 270.932C8.66576 272.695 11.119 274.363 13.964 275.917C11.1185 277.481 8.66486 279.159 6.66141 280.934C2.74095 284.406 0.5 288.29 0.5 292.429C0.5 296.568 2.74095 300.452 6.66141 303.924C10.5825 307.397 16.2278 310.502 23.1608 313.1C37.0306 318.296 56.158 321.5 77.261 321.5C77.5371 321.5 77.761 321.276 77.761 321C77.761 320.724 77.5371 320.5 77.261 320.5C56.246 320.5 37.2429 317.308 23.5117 312.163C16.6442 309.591 11.1214 306.539 7.32447 303.176C3.52692 299.812 1.5 296.179 1.5 292.429C1.5 288.679 3.52692 285.046 7.32446 281.682C9.397 279.847 11.9838 278.104 15.0227 276.481C17.4786 277.756 20.2029 278.949 23.1618 280.051C37.0312 285.216 56.1583 288.4 77.261 288.4C89.0953 288.4 99.8278 287.051 107.617 284.86C111.509 283.766 114.694 282.453 116.918 280.974C119.123 279.508 120.5 277.796 120.5 275.879C120.5 273.962 119.123 272.25 116.918 270.784C114.694 269.305 111.509 267.993 107.617 266.898C99.8278 264.708 89.0953 263.359 77.261 263.359C56.158 263.359 37.0306 266.563 23.1608 271.759C20.2018 272.867 17.4773 274.068 15.0213 275.351C11.9824 273.738 9.39577 272.006 7.32333 270.181C3.52565 266.838 1.5 263.228 1.5 259.503C1.5 255.778 3.52564 252.169 7.32332 248.826C9.37998 247.015 11.943 245.295 14.952 243.693C17.4262 244.981 20.1745 246.187 23.1618 247.3C37.0312 252.464 56.1583 255.648 77.261 255.648C89.0953 255.648 99.8278 254.299 107.617 252.109C111.509 251.014 114.694 249.702 116.918 248.223C119.123 246.757 120.5 245.045 120.5 243.128C120.5 241.211 119.123 239.499 116.918 238.033C114.694 236.554 111.509 235.241 107.617 234.147C99.8278 231.956 89.0953 230.607 77.261 230.607C56.1583 230.607 37.0312 233.791 23.1618 238.956C20.2596 240.036 17.5831 241.205 15.1642 242.453C12.064 240.808 9.42908 239.04 7.32447 237.176C3.58165 233.86 1.55879 230.284 1.50126 226.591C1.55877 222.923 3.5804 219.369 7.32333 216.074C9.38003 214.263 11.9432 212.543 14.9522 210.941C17.4264 212.229 20.1746 213.435 23.1618 214.548C37.0312 219.712 56.1583 222.896 77.261 222.896C89.0953 222.896 99.8278 221.548 107.617 219.357C111.509 218.263 114.694 216.95 116.918 215.471C119.123 214.005 120.5 212.293 120.5 210.376C120.5 210.293 120.497 210.21 120.492 210.128C120.497 210.045 120.5 209.962 120.5 209.879C120.5 207.962 119.123 206.25 116.918 204.784C114.694 203.305 111.509 201.993 107.617 200.898C99.8278 198.708 89.0953 197.359 77.261 197.359C56.158 197.359 37.0306 200.563 23.1608 205.759C20.2018 206.867 17.4773 208.068 15.0213 209.351C11.9824 207.738 9.39577 206.006 7.32333 204.181C3.61017 200.912 1.59104 197.389 1.50301 193.752C1.59104 190.115 3.61017 186.591 7.32333 183.322C9.39576 181.498 11.9824 179.765 15.0213 178.152C17.4773 179.435 20.2018 180.636 23.1608 181.745C37.0306 186.941 56.158 190.145 77.261 190.145C89.0953 190.145 99.8278 188.796 107.617 186.605C111.509 185.511 114.694 184.198 116.918 182.719C119.123 181.253 120.5 179.541 120.5 177.624C120.5 177.541 120.497 177.458 120.492 177.376C120.497 177.294 120.5 177.211 120.5 177.128C120.5 175.211 119.123 173.499 116.918 172.033C114.694 170.554 111.509 169.241 107.617 168.147C99.8278 165.956 89.0953 164.607 77.261 164.607C56.1583 164.607 37.0312 167.791 23.1618 172.956C20.1745 174.068 17.4262 175.274 14.9519 176.563C11.943 174.96 9.37998 173.24 7.32333 171.43C3.58023 168.135 1.55859 164.581 1.50125 160.913C1.5586 157.22 3.58148 153.643 7.32446 150.327C9.39695 148.492 11.9836 146.749 15.0225 145.126C17.4784 146.401 20.2028 147.594 23.1618 148.696C37.0312 153.861 56.1583 157.045 77.261 157.045C89.0953 157.045 99.8278 155.696 107.617 153.505C111.509 152.411 114.694 151.098 116.918 149.619C119.123 148.153 120.5 146.441 120.5 144.524C120.5 144.499 120.5 144.475 120.499 144.45C120.5 144.425 120.5 144.401 120.5 144.376C120.5 142.459 119.123 140.747 116.918 139.281C114.694 137.802 111.509 136.489 107.617 135.395C99.8278 133.204 89.0953 131.855 77.261 131.855C56.1583 131.855 37.0312 135.039 23.1618 140.204C20.1745 141.316 17.4264 142.522 14.9522 143.811C11.9432 142.208 9.38002 140.488 7.32333 138.678C3.55082 135.357 1.52693 131.773 1.50027 128.074C1.52693 124.375 3.55082 120.791 7.32333 117.47C9.37999 115.66 11.9431 113.94 14.952 112.337C17.4262 113.626 20.1745 114.832 23.1618 115.944C37.0312 121.109 56.1583 124.293 77.261 124.293C89.0953 124.293 99.8278 122.944 107.617 120.753C111.509 119.659 114.694 118.347 116.918 116.868C119.123 115.401 120.5 113.689 120.5 111.772C120.5 111.748 120.5 111.723 120.499 111.698C120.5 111.673 120.5 111.649 120.5 111.624C120.5 109.707 119.123 107.995 116.918 106.529C114.694 105.05 111.509 103.737 107.617 102.643C99.8278 100.452 89.0953 99.104 77.261 99.104C56.1583 99.104 37.0312 102.288 23.1618 107.452C20.2029 108.554 17.4786 109.748 15.0228 111.022C11.9838 109.399 9.39701 107.656 7.32447 105.821C3.58154 102.505 1.55866 98.9286 1.50126 95.2357C1.55865 91.5676 3.58028 88.0137 7.32333 84.7185C9.48775 82.8131 12.2131 81.0082 15.4286 79.3347C17.7777 80.5313 20.365 81.6548 23.1618 82.6962C37.0312 87.8608 56.1583 91.045 77.261 91.045C89.0953 91.045 99.8278 89.6964 107.617 87.5054C111.509 86.411 114.694 85.0985 116.918 83.6195C119.123 82.1531 120.5 80.4412 120.5 78.524C120.5 76.6068 119.123 74.895 116.918 73.4287C114.694 71.9497 111.509 70.6373 107.617 69.5428C99.8278 67.352 89.0953 66.0034 77.261 66.0034C56.158 66.0034 37.0306 69.2071 23.1608 74.4034C20.2017 75.512 17.4771 76.7131 15.0211 77.9958C11.9823 76.3828 9.39571 74.6506 7.32333 72.8261C3.52565 69.4827 1.5 65.8731 1.5 62.1481C1.5 58.4231 3.52565 54.8135 7.32333 51.4702C9.37999 49.6596 11.9431 47.9399 14.952 46.3374C17.4262 47.626 20.1745 48.832 23.1618 49.9443C37.0312 55.1087 56.1583 58.2929 77.261 58.2929C89.0953 58.2929 99.8278 56.9443 107.617 54.7535C111.509 53.659 114.694 52.3466 116.918 50.8676C119.123 49.4013 120.5 47.6895 120.5 45.7723C120.5 43.8551 119.123 42.1433 116.918 40.677C114.694 39.198 111.509 37.8856 107.617 36.7911C99.8278 34.6003 89.0953 33.2517 77.261 33.2517C56.1583 33.2517 37.0312 36.4358 23.1618 41.6002C20.1745 42.7126 17.4262 43.9186 14.952 45.2072C11.9431 43.6047 9.37999 41.8849 7.32333 40.0743C3.52565 36.731 1.5 33.1214 1.5 29.3964C1.5 25.6714 3.52565 22.0618 7.32333 18.7185C11.1202 15.3759 16.6431 12.3429 23.5107 9.78568C37.2423 4.67262 56.2457 1.5 77.261 1.5C77.5371 1.5 77.761 1.27614 77.761 1C77.761 0.723858 77.5371 0.5 77.261 0.5ZM16.5377 78.7724C18.67 79.8261 21.0005 80.8244 23.5107 81.7591C37.2423 86.8723 56.2457 90.045 77.261 90.045C89.0307 90.045 99.6677 88.7026 107.347 86.5428C111.19 85.4619 114.263 84.1841 116.364 82.7868C118.485 81.3768 119.5 79.9263 119.5 78.524C119.5 77.1218 118.485 75.6713 116.364 74.2614C114.263 72.8641 111.19 71.5863 107.347 70.5055C99.7766 68.3764 89.3317 67.0416 77.761 67.0042C77.7587 67.2784 77.5357 67.5 77.261 67.5C56.2457 67.5 37.2423 70.6726 23.5107 75.7857C21.0005 76.7204 18.67 77.7187 16.5377 78.7724ZM77.6157 254.648C77.5251 254.556 77.3997 254.5 77.261 254.5C56.246 254.5 37.2429 251.308 23.5117 246.163C20.8912 245.182 18.4664 244.13 16.2587 243.018C18.4662 241.913 20.8906 240.868 23.5107 239.893C37.2423 234.78 56.2457 231.607 77.261 231.607C89.0307 231.607 99.6677 232.949 107.347 235.109C111.19 236.19 114.263 237.468 116.364 238.865C118.485 240.275 119.5 241.726 119.5 243.128C119.5 244.53 118.485 245.98 116.365 247.39C114.263 248.787 111.19 250.065 107.347 251.146C99.7449 253.284 89.2443 254.621 77.6157 254.648ZM119.489 210.128C119.376 208.803 118.36 207.44 116.364 206.113C114.263 204.716 111.19 203.438 107.347 202.357C99.6677 200.197 89.0307 198.855 77.261 198.855C56.2457 198.855 37.2423 202.028 23.5107 207.141C21.0007 208.076 18.6703 209.074 16.5381 210.128C18.6703 211.181 21.0007 212.179 23.5107 213.114C37.2423 218.227 56.2457 221.4 77.261 221.4C89.0307 221.4 99.6677 220.058 107.347 217.898C111.19 216.817 114.263 215.539 116.364 214.142C118.36 212.815 119.376 211.452 119.489 210.128ZM16.5378 177.376C18.6701 178.43 21.0006 179.428 23.5107 180.363C37.2423 185.476 56.2457 188.648 77.261 188.648C89.0307 188.648 99.6677 187.306 107.347 185.146C111.19 184.065 114.263 182.787 116.365 181.39C118.36 180.063 119.377 178.701 119.489 177.376C119.377 176.051 118.36 174.688 116.364 173.361C114.263 171.964 111.19 170.686 107.347 169.606C99.6677 167.446 89.0307 166.104 77.261 166.104C56.2457 166.104 37.2423 169.276 23.5107 174.389C21.0006 175.324 18.67 176.322 16.5378 177.376ZM119.499 144.45C119.464 143.071 118.448 141.647 116.364 140.261C114.263 138.864 111.19 137.586 107.347 136.505C99.6677 134.346 89.0307 133.003 77.261 133.003C56.246 133.003 37.2429 136.195 23.5117 141.34C20.891 142.322 18.4662 143.373 16.2584 144.485C18.466 145.59 20.8905 146.635 23.5107 147.611C37.2423 152.724 56.2457 155.896 77.261 155.896C89.0307 155.896 99.6677 154.554 107.347 152.394C111.19 151.314 114.263 150.036 116.364 148.639C118.448 147.253 119.464 145.829 119.499 144.45ZM119.499 111.698C119.464 110.319 118.447 108.895 116.364 107.51C114.263 106.112 111.19 104.835 107.347 103.754C99.6677 101.594 89.0307 100.252 77.261 100.252C56.2457 100.252 37.2423 103.424 23.5107 108.537C20.8904 109.513 18.4659 110.558 16.2583 111.663C18.4661 112.775 20.891 113.827 23.5117 114.808C37.2429 119.953 56.246 123.145 77.261 123.145C89.0307 123.145 99.6677 121.803 107.347 119.643C111.19 118.562 114.263 117.284 116.364 115.887C118.447 114.502 119.464 113.077 119.499 111.698ZM23.5107 49.0072C20.8042 47.9994 18.3066 46.9177 16.0411 45.7723C18.3066 44.6269 20.8042 43.5452 23.5107 42.5374C37.2423 37.4243 56.2457 34.2517 77.261 34.2517C89.0307 34.2517 99.6677 35.594 107.347 37.7538C111.19 38.8346 114.263 40.1124 116.364 41.5097C118.485 42.9197 119.5 44.3701 119.5 45.7723C119.5 47.1745 118.485 48.625 116.364 50.0349C114.263 51.4322 111.19 52.71 107.347 53.7908C99.6677 55.9506 89.0307 57.2929 77.261 57.2929C56.2457 57.2929 37.2423 54.1203 23.5107 49.0072ZM23.5107 279.114C20.8322 278.117 18.3582 277.047 16.1114 275.915C18.3584 274.775 20.8327 273.699 23.5117 272.695C37.2429 267.551 56.246 264.359 77.261 264.359C89.0307 264.359 99.6677 265.701 107.347 267.861C111.19 268.942 114.263 270.22 116.364 271.617C118.485 273.027 119.5 274.477 119.5 275.879C119.5 277.281 118.485 278.732 116.364 280.142C114.263 281.539 111.19 282.817 107.347 283.898C99.6677 286.058 89.0307 287.4 77.261 287.4C56.2457 287.4 37.2423 284.227 23.5107 279.114Z" fill="black"/>
</svg>
