<svg width="646" height="17" viewBox="0 0 646 17" fill="none" xmlns="http://www.w3.org/2000/svg">
<path d="M2 2C34.1113 2 34.1113 15 66.2226 15C98.3339 15 98.3339 2 130.445 2C162.557 2 162.557 15 194.593 15C226.705 15 226.705 2 258.74 2C290.852 2 290.852 15 322.887 15C354.999 15 354.999 2 387.109 2C419.221 2 419.221 15 451.333 15C483.442 15 483.442 2 515.554 2C547.666 2 547.666 15 579.778 15C611.888 15 611.888 2 644 2" stroke="black" stroke-width="3" stroke-miterlimit="10" stroke-linecap="round"/>
</svg>
