<svg width="193" height="199" viewBox="0 0 193 199" fill="none" xmlns="http://www.w3.org/2000/svg">
<path d="M82.4248 96.5213C82.803 95.2318 83.1812 94.0497 83.5054 92.8676C85.0723 86.7959 86.5852 80.7243 88.6384 74.7601C92.3666 63.9601 96.6891 53.3751 101.12 42.8437C106.037 31.184 110.845 19.5243 115.708 7.86461C116.465 5.98401 117.383 4.21088 118.302 2.38401C118.626 1.68551 119.112 1.04073 119.652 0.503417C120.571 -0.410016 121.76 -0.0338965 121.868 1.25566C121.976 2.33028 121.976 3.40491 121.76 4.47954C120.949 9.0467 120.139 13.6139 119.166 18.1273C116.573 30.4318 113.925 42.7363 111.872 55.1482C110.683 62.4557 109.657 69.7631 108.63 77.0706C107.711 83.5183 106.955 89.9124 106.145 96.3601C106.037 97.3273 105.982 98.2945 105.874 99.5303C106.415 99.2079 106.685 99.0467 106.955 98.8318C108.036 97.8646 109.17 96.8974 110.143 95.8228C120.625 84.9691 132.458 75.6736 144.939 67.184C145.696 66.7004 146.452 66.2168 147.262 65.787C147.695 65.5721 148.181 65.4646 148.613 65.4109C149.478 65.3571 150.126 65.9482 150.126 66.8079C150.126 67.4527 150.018 68.2049 149.694 68.7959C148.937 70.3542 148.181 71.9124 147.208 73.3094C143.967 77.8228 140.725 82.3362 137.375 86.7422C132.35 93.3512 127.217 99.9064 122.138 106.515C121.165 107.751 120.301 109.094 119.49 110.491C118.302 112.48 118.518 113.447 120.517 114.683C122.03 115.596 123.597 116.402 125.218 117.1C131.053 119.572 137.105 121.506 143.156 123.333C158.555 128.062 173.792 133.274 188.704 139.345C189.623 139.721 190.596 140.044 191.514 140.42C191.892 140.581 192.217 140.742 192.541 141.011C193.243 141.656 193.027 142.784 192.108 143.106C191.784 143.214 191.406 143.268 191.082 143.268C187.462 143.321 183.842 143.429 180.222 143.321C171.036 142.945 161.851 141.978 152.72 140.85C139.32 139.238 126.028 137.035 112.844 134.294C111.061 133.918 109.278 133.65 107.495 133.327C107.117 133.274 106.739 133.22 106.307 133.274C104.902 133.274 104.307 133.596 103.929 134.993C103.443 136.874 103.011 138.754 102.687 140.635C101.228 148.748 100.039 156.915 99.1205 165.136C98.5261 170.456 98.0939 175.829 97.4455 181.148C96.9592 185.339 96.2568 189.477 95.6625 193.668C95.5004 194.581 95.1762 195.494 94.852 196.354C94.5278 197.268 93.9335 198.074 92.7988 198.074C91.7722 198.02 91.1779 197.268 90.9077 196.354C90.4214 194.903 89.9352 193.399 89.719 191.894C89.1787 188.294 88.6384 184.641 88.4223 181.041C87.882 172.229 87.4497 163.471 87.1796 154.659C87.0175 149.339 87.1796 144.02 87.2336 138.7C87.2336 138.217 87.2336 137.68 87.2336 136.981C86.4231 137.088 85.7207 137.088 85.0183 137.196C77.2378 138.485 69.6194 140.259 61.9469 142.086C48.8713 145.094 35.7957 148.372 22.5581 151.005C16.9388 152.133 11.2655 153.1 5.59222 154.121C4.61965 154.283 3.59306 154.336 2.62049 154.444C2.35033 154.444 2.08018 154.497 1.86405 154.444C0.729394 154.39 0.135049 154.068 0.0269865 153.369C-0.135108 152.456 0.459237 152.026 1.10761 151.65C2.56646 150.844 3.97128 150.091 5.43012 149.339C19.2081 142.086 33.3103 135.477 47.3044 128.706C53.8422 125.536 60.2719 122.044 66.7017 118.659C67.5121 118.229 68.2146 117.745 69.1871 117.154C68.7008 116.509 68.3226 115.865 67.8363 115.381C65.1348 112.48 62.5413 109.471 59.6236 106.784C53.7882 101.411 47.8447 96.1989 41.8473 90.987C34.553 84.6467 27.3669 78.1989 20.775 71.1601C19.3162 69.6019 17.9114 67.9363 16.5606 66.2706C16.1824 65.8407 15.8582 65.3034 15.534 64.7661C15.1017 64.0139 15.1558 63.3154 15.642 62.8318C16.0743 62.3482 16.7767 62.2945 17.5331 62.6706C17.8033 62.778 18.0735 62.993 18.3436 63.1004C21.9637 65.1422 25.4758 67.2915 29.1499 69.2258C40.0642 74.9213 51.0326 80.6168 61.7308 86.7959C66.8638 89.7512 72.2129 92.2228 77.8321 94.2109C78.6966 94.5333 79.4531 94.9631 80.2636 95.393C80.966 95.7153 81.6143 96.0915 82.4248 96.5213Z" fill="#EA552B"/>
</svg>
