<svg width="61" height="68" viewBox="0 0 61 68" fill="none" xmlns="http://www.w3.org/2000/svg">
<path fill-rule="evenodd" clip-rule="evenodd" d="M47.45 33.9598C73.8146 29.0241 56.5928 -1.44852 38.9453 19.1527C47.8752 -6.38422 13.0058 -6.38422 22.1485 19.1527C4.50105 -1.23393 -12.9337 29.0241 13.6437 33.9598C-12.7211 39.1101 4.50105 69.3681 22.1485 48.7667C13.2184 74.3038 47.8752 74.5182 38.9453 48.7667C56.3801 69.3681 73.8146 39.1101 47.45 33.9598ZM30.5 43C35.7467 43 40 38.7467 40 33.5C40 28.2533 35.7467 24 30.5 24C25.2533 24 21 28.2533 21 33.5C21 38.7467 25.2533 43 30.5 43Z" fill="black"/>
</svg>
